PathFileType	4	(X/Y/Z)	D:\TRACE\spotREDO_2-26-24\spot_Both_Motion_1_4-v60.trc
DataRate	CameraRate	NumFrames	NumMarkers	Units	OrigDataRate	OrigDataStartFrame	OrigNumFrames
100.00	100.00	      17	9	mm	100.00	4376	      7000
Frame#	Time	front left toe			Front right toe			aft left toe			aft right toe			Arm			FL body			FR body			AL Body			AR Body			
		X1	Y1	Z1	X2	Y2	Z2	X3	Y3	Z3	X4	Y4	Z4	X5	Y5	Z5	X6	Y6	Z6	X7	Y7	Z7	X8	Y8	Z8	X9	Y9	Z9	

4376	43.750	-312.04010	50.49694	-463.45001	59.61039	0.50200	-336.21008	-452.97791	24.60080	103.41128	-8.13863	26.18221	150.09282	-77.61993	703.03033	-751.76520	-158.86961	564.85303	-502.16895	-5.49621	571.60565	-474.99075	-321.16745	562.06427	366.97205	-182.25377	568.28418	393.71570	
4377	43.760	-313.66998	63.67260	-467.61731	59.32043	0.59792	-336.16446	-453.25064	24.57533	103.70368	-8.25719	26.07858	150.17390	-78.27056	702.65326	-751.72101	-159.27138	564.67267	-501.57831	-5.80919	571.44348	-474.37500	-321.14923	562.13385	367.67517	-182.23116	568.39233	394.38507	
4378	43.770	-312.94107	75.72216	-470.81870	59.07666	0.67140	-336.20792	-453.60007	24.69681	103.68970	-8.35038	26.03210	150.13741	-78.92165	702.36847	-751.82281	-159.95036	564.71625	-500.97357	-6.77046	571.37238	-473.89075	-321.45419	561.99396	368.28857	-182.43530	568.07111	394.88879	
4379	43.780	-311.79453	85.92622	-471.21649	58.38692	0.58532	-336.45670	-453.76071	24.72968	103.73165	-8.79680	25.95277	150.21681	-79.27753	702.02661	-751.88220	-160.71739	564.69946	-500.57660	-7.41826	571.48639	-473.58188	-321.98257	561.62701	368.84326	-182.92931	567.85828	395.36963	
4380	43.790	-311.12369	94.68212	-469.29346	57.91668	0.47694	-336.57870	-454.03195	24.61152	103.82894	-9.14256	25.87408	150.13112	-79.53552	701.70490	-751.80591	-161.53032	564.68549	-500.14566	-8.13810	571.50226	-473.32516	-322.23135	561.20068	369.49811	-183.35539	567.62305	395.83078	
4381	43.800	-311.05835	102.95796	-466.51431	57.38781	0.35480	-336.76260	-454.32782	24.70278	103.77831	-9.38483	25.89419	150.01732	-79.37520	701.34027	-751.45593	-162.54251	564.49908	-499.94022	-9.16293	571.40198	-472.93405	-322.62582	561.11371	369.74139	-183.60942	567.61658	396.13312	
4382	43.810	-311.21100	109.17839	-465.72449	56.82663	0.09607	-336.88684	-454.55725	24.71360	103.82417	-9.57683	26.03677	149.90150	-79.35289	701.28809	-751.44183	-163.24902	564.36041	-499.86545	-10.14876	571.43073	-472.73120	-323.36334	561.07404	369.86789	-184.07892	567.72900	396.38043	
4383	43.820	-311.39691	115.24554	-466.13608	57.10303	0.49619	-336.64923	-454.64871	24.74678	103.85691	-10.03915	26.00202	149.50273	-79.47512	701.12952	-751.46082	-164.53430	564.15082	-499.50519	-11.14507	571.34912	-472.82040	-324.15482	561.15875	370.18033	-184.90071	567.94672	396.54581	
4384	43.830	-311.93604	119.78478	-468.59543	56.44215	0.40505	-337.01852	-454.99875	24.83921	103.80295	-10.33737	26.09142	149.45299	-79.67295	700.47437	-751.28961	-165.75653	564.39758	-499.91171	-12.32131	571.28516	-472.62466	-324.84210	561.21210	370.59311	-185.89941	567.98022	396.99081	
4385	43.840	-312.19321	122.04649	-472.69870	56.44772	0.62518	-336.85562	-455.11655	24.76532	103.79774	-10.50057	25.96663	149.30693	-80.32697	699.52026	-751.55957	-166.61385	564.42261	-499.68243	-13.08797	571.28955	-472.13855	-326.08432	561.06885	370.76285	-186.78108	567.80237	397.13998	
4386	43.850	-313.29791	122.78438	-477.30457	56.39762	0.79323	-336.69077	-455.29642	24.42187	103.83017	-10.79090	25.83785	149.25905	-81.88287	698.29297	-752.18329	-166.95505	564.61133	-498.92764	-13.58626	571.44342	-471.73868	-327.05222	560.91180	370.93283	-188.16287	567.60144	397.37521	
4387	43.860	-315.22641	122.69016	-482.89557	56.53326	1.14214	-336.29437	-455.54532	24.25465	103.73608	-10.88892	26.01211	149.40208	-84.23137	696.89081	-753.66479	-167.40030	565.24286	-498.61774	-13.73258	571.82281	-471.22855	-328.66391	560.79346	370.98090	-189.63832	567.17780	397.51184	
4388	43.870	-316.74521	122.64007	-489.09323	56.60517	1.21487	-336.13690	-455.94049	24.06697	103.59914	-11.10374	26.19681	149.43346	-87.42227	694.55042	-755.27167	-167.42493	565.84100	-498.51147	-13.79644	572.06189	-470.76291	-330.23712	560.49213	370.96765	-191.13257	566.71893	397.83902	
4389	43.880	-317.78305	122.85518	-497.30481	57.09846	1.25489	-335.89188	-456.04993	24.05265	103.55617	-11.37395	26.32429	149.56474	-91.75418	691.71265	-758.10553	-166.99059	565.90955	-497.95840	-13.79670	571.90662	-470.02097	-331.94049	560.37775	370.79697	-192.49921	566.40240	398.13205	
4390	43.890	-319.04483	123.33117	-506.91516	57.31278	0.85406	-335.62595	-456.13870	24.06301	103.46114	-11.41893	26.39520	149.60291	-96.85308	688.18463	-761.59106	-166.71733	565.81750	-497.61401	-13.60154	571.57367	-469.50180	-332.97327	560.23999	370.91666	-194.18506	566.19635	398.43323	
4391	43.900	-319.73505	123.62564	-517.89404	57.70687	0.73370	-335.42853	-456.18051	23.90978	103.46954	-11.46672	26.29572	149.50188	-102.57037	684.21906	-765.92926	-166.96971	565.51349	-497.35208	-13.78442	571.15570	-469.23514	-334.48663	560.30957	370.92062	-195.22688	566.00287	398.45102	
4392	43.910	-320.44879	124.02895	-529.06372	57.89327	0.59790	-335.33926	-456.15204	23.85842	103.48526	-10.72940	27.24820	150.19667	-108.41047	680.22284	-770.73047	-166.60759	564.58539	-497.34894	-14.09184	570.61517	-469.04388	-335.14468	560.32721	370.98016	-196.28651	566.04962	398.49927	
